<?xml version="1.0" standalone="no"?>
<!DOCTYPE svg PUBLIC "-//W3C//DTD SVG 20010904//EN"
 "http://www.w3.org/TR/2001/REC-SVG-20010904/DTD/svg10.dtd">
<svg version="1.0" xmlns="http://www.w3.org/2000/svg"
 width="500.000000pt" height="500.000000pt" viewBox="0 0 500.000000 500.000000"
 preserveAspectRatio="xMidYMid meet">

<g transform="translate(0.000000,500.000000) scale(0.100000,-0.100000)"
fill="#000000" stroke="none">
<path d="M0 2500 l0 -2500 2500 0 2500 0 0 2500 0 2500 -2500 0 -2500 0 0
-2500z m3092 146 c-10 -17 -34 -41 -53 -54 -28 -20 -43 -23 -87 -20 -43 4 -59
11 -87 38 -20 19 -40 50 -45 70 -12 41 -13 290 -3 764 5 289 8 335 19 313 31
-59 121 -84 187 -52 37 17 76 70 79 106 2 13 4 -237 5 -555 3 -544 2 -581 -15
-610z m-1084 665 c46 -87 52 -136 52 -447 0 -220 -3 -292 -14 -318 -31 -75
-140 -109 -205 -64 -19 12 -44 36 -55 51 -20 27 -21 41 -22 323 -1 285 -2 296
-23 324 l-21 29 30 -11 c113 -39 222 96 165 206 -23 43 -19 44 24 2 22 -21 53
-64 69 -95z m-961 -817 c42 -32 66 -80 65 -132 0 -51 -21 -85 -72 -119 -30
-21 -44 -23 -169 -23 -122 1 -133 2 -106 14 67 30 103 100 85 167 -12 45 -43
86 -73 95 -44 14 14 24 130 21 96 -2 116 -5 140 -23z m3066 20 l38 -7 -30 -18
c-50 -30 -77 -100 -61 -159 11 -39 51 -83 90 -99 18 -7 -18 -10 -135 -10 -143
-1 -164 1 -193 19 -99 61 -95 203 8 257 37 20 58 23 144 23 56 0 118 -3 139
-6z m-1083 -233 c19 -10 45 -33 58 -51 21 -32 22 -40 22 -286 l0 -252 26 -31
26 -31 -28 10 c-125 48 -242 -129 -151 -229 l22 -25 -32 22 c-82 57 -140 170
-153 299 -13 117 -13 439 0 482 26 91 129 136 210 92z m-1050 -84 c82 -43 80
-29 80 -550 l0 -459 -35 30 c-93 82 -233 23 -236 -100 l-1 -33 -8 28 c-14 47
-24 945 -11 992 17 65 78 111 147 114 11 1 40 -9 64 -22z"/>
</g>
</svg>
